<svg xmlns="http://www.w3.org/2000/svg" xmlns:xlink="http://www.w3.org/1999/xlink" xmlns:serif="http://www.serif.com/" viewBox="0 0 32 40" version="1.1" xml:space="preserve" style="" x="0px" y="0px" fill-rule="evenodd" clip-rule="evenodd" stroke-linejoin="round" stroke-miterlimit="2"><path d="M9.357,22.153l-1.033,5.942c-0.104,0.597 0.061,1.21 0.451,1.674c0.39,0.463 0.965,0.731 1.571,0.731c0.486,0 0.998,0 1.442,0c0.942,0 1.763,-0.641 1.991,-1.555c0.07,-0.278 0.146,-0.582 0.221,-0.885c0.23,-0.917 1.054,-1.56 1.999,-1.56l0.002,0c0.945,0 1.769,0.643 1.999,1.56c0.075,0.303 0.151,0.607 0.221,0.885c0.228,0.914 1.049,1.555 1.991,1.555l1.435,0c0.606,0 1.181,-0.268 1.571,-0.731c0.39,-0.464 0.556,-1.077 0.452,-1.674l-1.033,-5.94c-1.927,0.85 -4.2,1.345 -6.637,1.345c-2.439,-0 -4.714,-0.496 -6.643,-1.347Zm6.643,-16.653c-4.035,-0 -7.609,1.394 -9.827,3.518c-1.531,1.465 -2.423,3.278 -2.423,5.232c-0,1.954 0.892,3.767 2.423,5.232c2.218,2.124 5.792,3.518 9.827,3.518c4.035,-0 7.609,-1.394 9.827,-3.518c1.531,-1.465 2.423,-3.278 2.423,-5.232c-0,-1.954 -0.892,-3.767 -2.423,-5.232c-2.218,-2.124 -5.792,-3.518 -9.827,-3.518Zm0,2c-2.76,0 -5,2.24 -5,5c0,2.76 2.24,5 5,5c2.76,0 5,-2.24 5,-5c-0,-2.76 -2.24,-5 -5,-5Zm0,1c2.208,0 4,1.792 4,4c-0,2.208 -1.792,4 -4,4c-2.208,0 -4,-1.792 -4,-4c0,-2.208 1.792,-4 4,-4Zm0,2c-1.104,0 -2,0.896 -2,2c0,1.104 0.896,2 2,2c1.104,0 2,-0.896 2,-2c0,-1.104 -0.896,-2 -2,-2Zm-0.5,-6.195l-0,0.702c0.166,-0.005 0.332,-0.007 0.5,-0.007c0.168,-0 0.334,0.002 0.5,0.007l-0,-0.669c0.581,-0.191 1,-0.738 1,-1.383c0,-0.803 -0.652,-1.455 -1.455,-1.455c-0.804,0 -1.456,0.652 -1.456,1.455c0,0.611 0.377,1.135 0.911,1.35Zm0.545,-1.805c0.251,0 0.455,0.204 0.455,0.455c-0,0.252 -0.204,0.456 -0.455,0.456c-0.252,-0 -0.456,-0.204 -0.456,-0.456c0,-0.251 0.204,-0.455 0.456,-0.455Z"/><text x="0" y="47" fill="#000000" font-size="5px" font-weight="bold" font-family="'Helvetica Neue', Helvetica, Arial-Unicode, Arial, Sans-serif">Created by Firza Alamsyah</text><text x="0" y="52" fill="#000000" font-size="5px" font-weight="bold" font-family="'Helvetica Neue', Helvetica, Arial-Unicode, Arial, Sans-serif">from the Noun Project</text></svg>