<?xml version="1.0" encoding="utf-8"?>
<!-- Generator: Adobe Illustrator 24.3.0, SVG Export Plug-In . SVG Version: 6.00 Build 0)  -->
<svg version="1.1" id="Layer_1" xmlns="http://www.w3.org/2000/svg" xmlns:xlink="http://www.w3.org/1999/xlink" x="0px" y="0px"
	 viewBox="0 0 50 50" style="enable-background:new 0 0 50 50;" xml:space="preserve">
<style type="text/css">
	.st0{fill:#3F9C97;}
	.st1{fill:#FFFFFF;}
</style>
<path class="st0" d="M27.1,49.7h-3.7c-12.6,0-22.8-10.2-22.8-22.8v-3.7c0-12.6,10.2-22.8,22.8-22.8h3.7c12.6,0,22.8,10.2,22.8,22.8
	v3.7C49.9,39.4,39.7,49.7,27.1,49.7z"/>
<path class="st1" d="M30.3,37.1H11.4c-0.2,0-0.4-0.2-0.4-0.4c0-0.3,0.2-0.4,0.4-0.4h18.9c0.2,0,0.4,0.2,0.4,0.4
	C30.8,37,30.6,37.1,30.3,37.1z"/>
<path class="st1" d="M30.3,37.1H14.2c-0.2,0-0.4-0.2-0.4-0.4V25.3c0-0.2,0.2-0.4,0.4-0.4c0.3,0,0.4,0.2,0.4,0.4v10.9h15.7
	c0.2,0,0.4,0.2,0.4,0.4C30.8,36.9,30.6,37.1,30.3,37.1z"/>
<path class="st1" d="M13,26.2c-0.5,0-1-0.2-1.4-0.6c-0.4-0.4-0.6-0.9-0.6-1.4c0-0.5,0.2-1,0.5-1.4l10.2-10.2c1.4-1.4,3.7-1.4,5.1,0
	l4.4,4.4c0.2,0.2,0.2,0.4,0,0.6c-0.2,0.2-0.4,0.2-0.6,0l-4.4-4.4c-1.1-1.1-2.8-1.1-3.9,0L12.2,23.4c-0.2,0.2-0.3,0.5-0.3,0.8
	c0,0.2,0,0.5,0.3,0.8c0.4,0.4,1.2,0.4,1.7,0L24,14.8c0.2-0.2,0.4-0.2,0.6,0l3.7,3.7c0.2,0.2,0.2,0.4,0,0.6c-0.2,0.2-0.4,0.2-0.6,0
	l-3.4-3.4l-9.9,9.9C14.1,26,13.5,26.2,13,26.2z"/>
<path class="st1" d="M25.7,37.1h-6.3c-0.2,0-0.4-0.2-0.4-0.4v-8.1c0-0.7,0.6-1.3,1.3-1.3h4.6c0.7,0,1.3,0.6,1.3,1.3v8.1
	C26.1,36.9,25.9,37.1,25.7,37.1z M19.8,36.2h5.4v-7.7c0-0.3-0.2-0.4-0.4-0.4h-4.6c-0.3,0-0.4,0.2-0.4,0.4V36.2z"/>
<path class="st1" d="M33.1,37.1c-0.6,0-1.1-0.3-1.4-0.8c-1.6-2.6-5.1-8.8-5.1-11.5c0-3.6,2.9-6.5,6.5-6.5c3.6,0,6.5,2.9,6.5,6.5
	c0,1.9-1.7,5.7-5,11.5C34.2,36.8,33.7,37.1,33.1,37.1z M33.1,19.2c-3.1,0-5.6,2.5-5.6,5.6c0,2.5,3.8,9.1,5,11.1
	c0.1,0.2,0.4,0.4,0.7,0.4s0.5-0.1,0.7-0.4c4-7,4.8-9.9,4.8-11.1C38.7,21.7,36.2,19.2,33.1,19.2z"/>
<path class="st1" d="M33.1,28.9c-2.3,0-4.2-1.9-4.2-4.2s1.9-4.2,4.2-4.2c2.3,0,4.2,1.9,4.2,4.2S35.4,28.9,33.1,28.9z M33.1,21.5
	c-1.8,0-3.3,1.5-3.3,3.3s1.5,3.3,3.3,3.3c1.8,0,3.3-1.5,3.3-3.3S34.9,21.5,33.1,21.5z"/>
<path class="st1" d="M20.7,33c-0.2,0-0.4-0.2-0.4-0.4V32c0-0.2,0.2-0.4,0.4-0.4c0.3,0,0.4,0.2,0.4,0.4v0.6
	C21.1,32.8,20.9,33,20.7,33z"/>
</svg>
