<?xml version="1.0" encoding="utf-8"?>
<!-- Generator: Adobe Illustrator 24.3.0, SVG Export Plug-In . SVG Version: 6.00 Build 0)  -->
<svg version="1.1" id="Layer_1" xmlns="http://www.w3.org/2000/svg" xmlns:xlink="http://www.w3.org/1999/xlink" x="0px" y="0px"
	 viewBox="0 0 50 50" style="enable-background:new 0 0 50 50;" xml:space="preserve">
<style type="text/css">
	.st0{fill:#3F9C97;}
	.st1{clip-path:url(#SVGID_2_);}
	.st2{fill:#FFFFFF;}
</style>
<path class="st0" d="M27.2,49.8h-3.7C10.9,49.8,0.7,39.6,0.7,27v-3.7c0-12.6,10.2-22.8,22.8-22.8h3.7C39.8,0.5,50,10.7,50,23.3V27
	C50,39.6,39.8,49.8,27.2,49.8z"/>
<g>
	<g>
		<defs>
			<rect id="SVGID_1_" x="10" y="10" width="30" height="30"/>
		</defs>
		<clipPath id="SVGID_2_">
			<use xlink:href="#SVGID_1_"  style="overflow:visible;"/>
		</clipPath>
		<g class="st1">
			<path class="st2" d="M38.5,15h-27c-0.8,0-1.5,0.7-1.5,1.5v16.9c0,0.8,0.7,1.5,1.5,1.5h26.9c0.8,0,1.5-0.7,1.5-1.5V16.5
				C40,15.7,39.3,15,38.5,15z M37.9,16.2l-12,9c-0.2,0.2-0.5,0.3-0.9,0.3c-0.3,0-0.7-0.1-0.9-0.3l-12-9H37.9z M31.5,25.7l6.5,8.1
				l0,0H12l0,0l6.5-8.1c0.2-0.2,0.2-0.6-0.1-0.8c-0.2-0.2-0.6-0.2-0.8,0.1l-6.5,8V16.9l12.3,9.2c0.5,0.3,1,0.5,1.6,0.5
				s1.1-0.2,1.6-0.5l12.3-9.2V33l-6.5-8c-0.2-0.2-0.6-0.3-0.8-0.1C31.3,25.1,31.3,25.5,31.5,25.7z"/>
		</g>
	</g>
</g>
</svg>
